<svg width="32" height="28" viewBox="0 0 32 28" xmlns="http://www.w3.org/2000/svg">
  <title>
    logo
  </title>
  <path d="M28.588 10.48c-.004-1.124 3.333-1.364 3.333-5.998 0-1.424-.99-3.22-2.82-4.426-.68-.453.81 2.014-1.52 1.787-8.523-.83-14.674 6.103-16.114 8.74-.512.938-1.802.67-2.152.49-.36-.187-.555-.578-.555-1.27 0-1.302.987-2.17.987-2.17.73-.73 8.022-7.045 4.667-7.307-2.86-.126-8.2 2.524-6.393 6.56-.3-.04-.615-.053-.94-.044C4.527 3.162 8.367.452 9.1.326c-1.428 0-3.55 1.67-4.015 3.143-.545 1.72-3.93 2.21-4.692-.48-.43 2.38 3.1 3.26 4.635 2.9 0 0 .248.67.607 1.123-3.318.7-6.767 3.27-5.28 5.214 1.553 2.03 4.248.556 5.773 2.444.428.53.816 1.046.768 2.308-.1 2.657-1.71 5.31-2.642 6.416 0 0-2.758 2.983-1.853 3.887 1 .996 1.85.54 2.36-.666 3.66-7.46 13.83-12.54 14.63-12.702-.173-1.594 1.248-9.324 9.05-9.324-2.47 0-7.004 3.243-7.004 5.974 0 2.823 6.036.753 6.036 1.434 0 2.946-3.5 5.79-2.26 6.753.758.59 5.83-3.97 5.83-6.01 0-1.445-2.44-.28-2.445-2.27zm-24.09-.354c-.48.327-1.568.113-1.568.113s.205-1.09.687-1.42c.482-.33 1.08-.35 1.568-.11.038.54-.205 1.09-.687 1.41z" fill="#ffffff" fill-rule="evenodd"/>
</svg>
